<?xml version="1.0" encoding="UTF-8"?><svg xmlns="http://www.w3.org/2000/svg" viewBox="0 0 90 90"><defs><style>.cls-1{fill:#bdc3c7;}.cls-2{fill:#6b7082;}.cls-3{fill:#464c63;}.cls-4{fill:#fabd6b;}.cls-5{fill:#93cfef;}.cls-6{fill:#d87070;}</style></defs><title>group-layers</title><g id="group-layers"><circle class="cls-1" cx="45" cy="45" r="45" fill="#bdc3c7" id="label"/><g id="icon"><path class="cls-2" fill="#6b7082" d="M23 23h4.89v4.89H23z"/><path class="cls-3" d="M28.89 28.89H22V22h6.89zm-4.89-2h2.89V24H24z" fill="#464c63"/><path class="cls-2" fill="#6b7082" d="M62.11 23H67v4.89h-4.89z"/><path class="cls-3" d="M68 28.89h-6.89V22H68zm-4.89-2H66V24h-2.89z" fill="#464c63"/><path class="cls-2" fill="#6b7082" d="M23 62.11h4.89V67H23z"/><path class="cls-3" d="M28.89 68H22v-6.89h6.89zM24 66h2.89v-2.89H24z" fill="#464c63"/><path class="cls-2" fill="#6b7082" d="M62.11 62.11H67V67h-4.89z"/><path class="cls-3" d="M68 68h-6.89v-6.89H68zm-4.89-2H66v-2.89h-2.89z" fill="#464c63"/><path class="cls-3" fill="#464c63" d="M30.81 24.44h2.84v2h-2.84z"/><path class="cls-3" fill="#464c63" d="M35.92 24.44h2.84v2h-2.84z"/><path class="cls-3" fill="#464c63" d="M41.03 24.44h2.84v2h-2.84z"/><path class="cls-3" fill="#464c63" d="M46.14 24.44h2.84v2h-2.84z"/><path class="cls-3" fill="#464c63" d="M51.25 24.44h2.84v2h-2.84z"/><path class="cls-3" fill="#464c63" d="M56.36 24.44h2.84v2h-2.84z"/><path class="cls-3" fill="#464c63" d="M30.81 63.56h2.84v2h-2.84z"/><path class="cls-3" fill="#464c63" d="M35.92 63.56h2.84v2h-2.84z"/><path class="cls-3" fill="#464c63" d="M41.03 63.56h2.84v2h-2.84z"/><path class="cls-3" fill="#464c63" d="M46.14 63.56h2.84v2h-2.84z"/><path class="cls-3" fill="#464c63" d="M51.25 63.56h2.84v2h-2.84z"/><path class="cls-3" fill="#464c63" d="M56.36 63.56h2.84v2h-2.84z"/><path class="cls-3" fill="#464c63" d="M63.56 30.81h2v2.84h-2z"/><path class="cls-3" fill="#464c63" d="M63.56 35.92h2v2.84h-2z"/><path class="cls-3" fill="#464c63" d="M63.56 41.03h2v2.84h-2z"/><path class="cls-3" fill="#464c63" d="M63.56 46.14h2v2.84h-2z"/><path class="cls-3" fill="#464c63" d="M63.56 51.25h2v2.84h-2z"/><path class="cls-3" fill="#464c63" d="M63.56 56.36h2v2.84h-2z"/><path class="cls-3" fill="#464c63" d="M24.45 30.81h2v2.84h-2z"/><path class="cls-3" fill="#464c63" d="M24.45 35.92h2v2.84h-2z"/><path class="cls-3" fill="#464c63" d="M24.45 41.03h2v2.84h-2z"/><path class="cls-3" fill="#464c63" d="M24.45 46.14h2v2.84h-2z"/><path class="cls-3" fill="#464c63" d="M24.45 51.25h2v2.84h-2z"/><path class="cls-3" fill="#464c63" d="M24.45 56.36h2v2.84h-2z"/><path class="cls-4" fill="#fabd6b" d="M39.42 48.75l-7.81 3.75L45 58.93l13.39-6.43-7.81-3.75"/><path class="cls-3" d="M45 59.93a1 1 0 0 1-.43-.1L31.18 53.4a1 1 0 0 1 0-1.8L39 47.85a1 1 0 0 1 .87 1.8l-5.95 2.85L45 57.82l11.08-5.32-5.93-2.85a1 1 0 0 1 .87-1.8l7.81 3.75a1 1 0 0 1 0 1.8l-13.4 6.43a1 1 0 0 1-.43.1z" fill="#464c63"/><path class="cls-5" fill="#93cfef" d="M39.42 41.25L31.61 45 45 51.43 58.39 45l-7.81-3.75"/><path class="cls-3" d="M45 52.43a1 1 0 0 1-.43-.1L31.18 45.9a1 1 0 0 1 0-1.8L39 40.35a1 1 0 0 1 .87 1.8L33.92 45 45 50.32 56.08 45l-5.93-2.85a1 1 0 0 1 .87-1.8l7.81 3.75a1 1 0 0 1 0 1.8l-13.4 6.43a1 1 0 0 1-.43.1z" fill="#464c63"/><path class="cls-6" fill="#d87070" d="M45 43.93l13.39-6.43L45 31.07 31.61 37.5 45 43.93z"/><path class="cls-3" d="M45 44.93a1 1 0 0 1-.43-.1L31.18 38.4a1 1 0 0 1 0-1.8l13.39-6.43a1 1 0 0 1 .87 0l13.38 6.43a1 1 0 0 1 0 1.8l-13.39 6.43a1 1 0 0 1-.43.1zM33.92 37.5L45 42.82l11.08-5.32L45 32.18z" fill="#464c63"/></g></g><metadata><rdf:RDF xmlns:rdf="http://www.w3.org/1999/02/22-rdf-syntax-ns#" xmlns:rdfs="http://www.w3.org/2000/01/rdf-schema#" xmlns:dc="http://purl.org/dc/elements/1.1/"><rdf:Description about="https://iconscout.com/legal#licenses" dc:title="group,layers" dc:description="group,layers" dc:publisher="Iconscout" dc:date="2017-09-15" dc:format="image/svg+xml" dc:language="en"><dc:creator><rdf:Bag><rdf:li>EcommDesign</rdf:li></rdf:Bag></dc:creator></rdf:Description></rdf:RDF></metadata></svg>