<?xml version="1.0" encoding="UTF-8"?><!DOCTYPE svg PUBLIC "-//W3C//DTD SVG 1.1//EN" "http://www.w3.org/Graphics/SVG/1.1/DTD/svg11.dtd"><svg xmlns="http://www.w3.org/2000/svg" xmlns:xlink="http://www.w3.org/1999/xlink" version="1.1" id="Layer_1" x="0px" y="0px" width="64px" height="64px" viewBox="0 0 64 64" xml:space="preserve"><path fill="#303030" d="M61.865 31.156l-5.849-2.712a3.188 3.188 0 0 0-2.676-.008l-20.01 9.148a3.203 3.203 0 0 1-2.658 0l-20.014-9.147a3.184 3.184 0 0 0-2.676.008l-5.849 2.712a1.092 1.092 0 0 0 .007 1.986l28.531 13.041a3.18 3.18 0 0 0 2.658 0l28.529-13.041a1.092 1.092 0 0 0 .007-1.987z"/><path fill="#303030" d="M61.865 47.877l-5.849-2.716a3.207 3.207 0 0 0-2.676-.008l-20.01 9.15a3.195 3.195 0 0 1-2.658 0l-20.014-9.149a3.207 3.207 0 0 0-2.676.008l-5.849 2.716c-.849.392-.845 1.593.007 1.983l28.531 13.044a3.195 3.195 0 0 0 2.658 0l28.53-13.045c.852-.39.856-1.591.006-1.983z"/><path fill="#5F6660" d="M61.865 31.156l-1.905-.883-26.63 12.174a3.195 3.195 0 0 1-2.658 0L4.04 30.273l-1.906.883a1.092 1.092 0 0 0 .007 1.986l28.531 13.041a3.18 3.18 0 0 0 2.658 0l28.529-13.041c.852-.39.856-1.591.006-1.986z"/><path fill="#5F6660" d="M61.865 47.877l-1.905-.886-26.63 12.175a3.18 3.18 0 0 1-2.658 0L4.039 46.991l-1.905.886c-.849.392-.845 1.593.007 1.983l28.531 13.044a3.195 3.195 0 0 0 2.658 0L61.859 49.86c.852-.39.856-1.591.006-1.983z"/><path fill="#303030" d="M61.865 14.29L33.555 1.148a3.702 3.702 0 0 0-3.108 0L2.136 14.29a1.091 1.091 0 0 0 .005 1.986L30.67 29.317a3.19 3.19 0 0 0 2.659 0l28.53-13.041a1.092 1.092 0 0 0 .006-1.986z"/><path fill="#3F4240" d="M61.865 14.29L33.555 1.148a3.702 3.702 0 0 0-3.108 0L2.136 14.29a1.091 1.091 0 0 0 .005 1.986L30.67 29.317a3.19 3.19 0 0 0 2.659 0l28.53-13.041a1.092 1.092 0 0 0 .006-1.986z"/><path fill="#303030" d="M61.865 14.29L33.568 1.148C33.066.917 33 .805 32 .809v28.796c0 .004.912-.091 1.342-.287l28.524-13.041c.852-.392.848-1.593-.001-1.987z"/><path fill="#5F6660" d="M61.865 14.29l-1.903-.884-26.633 12.176a3.19 3.19 0 0 1-2.659 0L4.038 13.406l-1.902.884a1.091 1.091 0 0 0 .005 1.986L30.67 29.317a3.19 3.19 0 0 0 2.659 0l28.53-13.041a1.092 1.092 0 0 0 .006-1.986z"/><metadata><rdf:RDF xmlns:rdf="http://www.w3.org/1999/02/22-rdf-syntax-ns#" xmlns:rdfs="http://www.w3.org/2000/01/rdf-schema#" xmlns:dc="http://purl.org/dc/elements/1.1/"><rdf:Description about="https://iconscout.com/legal#licenses" dc:title="layers" dc:description="layers" dc:publisher="Iconscout" dc:date="2018-01-30" dc:format="image/svg+xml" dc:language="en"><dc:creator><rdf:Bag><rdf:li>Roundicons.com</rdf:li></rdf:Bag></dc:creator></rdf:Description></rdf:RDF></metadata></svg>